# xmcd CD database file
#
# Track frame offsets:
#	150
#	9833
#	22561
#	31319
#	49829
#	62287
#	78805
#	89531
#	102979
#	115788
#
# Disc length: 1749 seconds
#
# Revision: 0
# Processed by: cddbd v1.5.1PL0 Copyright (c) Steve Scherf et al.
# Submitted via: Feurio! 1.68 - http://www.feurio.com
#
DISCID=6006d30a
DTITLE=Savannah Sexton - Savannah Sexton
DYEAR=2005
DGENRE=
TTITLE0=Be Bop Diddle Lee Dum
TTITLE1=The Circuis Is Coming To Town
TTITLE2=Always Do Your Best
TTITLE3=That's Why I Want To Be A Clown
TTITLE4=Uh Oh
TTITLE5=Diana, Princess Diana
TTITLE6=Those Pretty Birds
TTITLE7=Daddy's Knee
TTITLE8=God Will Hold You Up
TTITLE9=You Are The Answer
EXTD=
EXTT0=
EXTT1=
EXTT2=
EXTT3=
EXTT4=
EXTT5=
EXTT6=
EXTT7=
EXTT8=
EXTT9=
PLAYORDER=
